<svg width="267" height="97" viewBox="0 0 267 97" fill="none" xmlns="http://www.w3.org/2000/svg">
<g id="magpie-aware-icon">
<g id="Magpie Aware">
<path d="M10.16 59.64C9.47733 59.64 8.90133 59.4053 8.432 58.936C8.00533 58.424 7.83467 57.8267 7.92 57.144L10.672 35.64C10.7573 34.7867 11.0773 34.1467 11.632 33.72C12.2293 33.2933 12.8693 33.08 13.552 33.08C14.2347 33.08 14.8533 33.2507 15.408 33.592C16.0053 33.8907 16.4107 34.36 16.624 35L21.68 49.336C21.8933 49.848 22.1067 50.104 22.32 50.104C22.576 50.104 22.7893 49.848 22.96 49.336L28.016 35C28.2293 34.36 28.6133 33.8907 29.168 33.592C29.7653 33.2507 30.384 33.08 31.024 33.08C31.7067 33.08 32.3467 33.2933 32.944 33.72C33.5413 34.1467 33.8827 34.7867 33.968 35.64L36.72 57.144C36.8053 57.8267 36.6347 58.424 36.208 58.936C35.7813 59.4053 35.2053 59.64 34.48 59.64C33.9253 59.64 33.4133 59.448 32.944 59.064C32.5173 58.68 32.2613 58.1893 32.176 57.592L30.768 41.784C30.7253 41.272 30.5547 41.016 30.256 41.016C29.9573 41.016 29.744 41.2293 29.616 41.656L25.008 54.392C24.752 55.0747 24.3893 55.5653 23.92 55.864C23.4507 56.1627 22.9173 56.312 22.32 56.312C21.168 56.312 20.2933 55.672 19.696 54.392L15.024 41.656C14.8533 41.2293 14.64 41.016 14.384 41.016C14.2133 41.016 14.0853 41.272 14 41.784L12.464 57.592C12.4213 58.1893 12.1653 58.68 11.696 59.064C11.2693 59.448 10.7573 59.64 10.16 59.64ZM49.441 59.64C47.6063 59.64 45.9637 59.2133 44.513 58.36C43.0623 57.5067 41.9317 56.3333 41.121 54.84C40.3103 53.304 39.905 51.5973 39.905 49.72C39.905 47.8853 40.3103 46.2427 41.121 44.792C41.9317 43.3413 43.0623 42.2107 44.513 41.4C45.9637 40.5467 47.6063 40.12 49.441 40.12C50.6357 40.12 51.7023 40.3333 52.641 40.76C53.5797 41.144 54.3903 41.656 55.073 42.296C55.1583 41.6987 55.4143 41.2507 55.841 40.952C56.2677 40.6107 56.737 40.44 57.249 40.44C57.8037 40.44 58.2943 40.632 58.721 41.016C59.1903 41.3573 59.425 41.8907 59.425 42.616V57.656C59.425 58.296 59.1903 58.7867 58.721 59.128C58.2943 59.4693 57.8037 59.64 57.249 59.64C56.6943 59.64 56.1823 59.4693 55.713 59.128C55.2863 58.7867 55.073 58.296 55.073 57.656V57.4C54.3903 58.0827 53.5797 58.616 52.641 59C51.7023 59.4267 50.6357 59.64 49.441 59.64ZM49.825 55.672C51.4463 55.672 52.7263 55.1387 53.665 54.072C54.6037 52.9627 55.073 51.512 55.073 49.72C55.073 48.0133 54.6037 46.648 53.665 45.624C52.7263 44.6 51.4463 44.088 49.825 44.088C48.161 44.088 46.817 44.6 45.793 45.624C44.769 46.648 44.257 48.0133 44.257 49.72C44.257 51.512 44.769 52.9627 45.793 54.072C46.817 55.1387 48.161 55.672 49.825 55.672ZM72.1195 67.96C71.2235 67.96 70.2208 67.8747 69.1115 67.704C68.0022 67.5333 66.9142 67.1707 65.8475 66.616C65.0368 66.1893 64.6315 65.528 64.6315 64.632C64.6315 64.12 64.8022 63.6507 65.1435 63.224C65.5275 62.7973 65.9968 62.584 66.5515 62.584C66.9355 62.584 67.3195 62.6907 67.7035 62.904C68.5142 63.3307 69.3248 63.6293 70.1355 63.8C70.9462 63.9707 71.7355 64.056 72.5035 64.056C74.0395 64.056 75.3622 63.6507 76.4715 62.84C77.5808 62.072 78.1355 60.8347 78.1355 59.128V57.336C77.4102 58.0613 76.5568 58.616 75.5755 59C74.6368 59.4267 73.5702 59.64 72.3755 59.64C70.6262 59.64 69.0262 59.2133 67.5755 58.36C66.1675 57.5067 65.0368 56.3333 64.1835 54.84C63.3728 53.3467 62.9675 51.6613 62.9675 49.784C62.9675 47.9067 63.3728 46.2213 64.1835 44.728C64.9942 43.2347 66.1035 42.0613 67.5115 41.208C68.9195 40.3547 70.5195 39.992 72.3115 40.12C73.5488 40.2053 74.6368 40.4613 75.5755 40.888C76.5568 41.272 77.4102 41.8053 78.1355 42.488C78.1355 41.8907 78.3275 41.4 78.7115 41.016C79.1382 40.632 79.6715 40.44 80.3115 40.44C80.9515 40.44 81.4635 40.632 81.8475 41.016C82.2742 41.4 82.4875 41.8907 82.4875 42.488V59.256C82.4875 61.2187 82.0182 62.84 81.0795 64.12C80.1835 65.4427 78.9462 66.4027 77.3675 67C75.7888 67.64 74.0395 67.96 72.1195 67.96ZM72.8875 55.672C74.5088 55.672 75.7888 55.1387 76.7275 54.072C77.6662 52.9627 78.1355 51.512 78.1355 49.72C78.1355 48.0133 77.6662 46.648 76.7275 45.624C75.7888 44.6 74.5088 44.088 72.8875 44.088C71.2235 44.088 69.8795 44.6 68.8555 45.624C67.8315 46.648 67.3195 48.0347 67.3195 49.784C67.3195 51.4907 67.8102 52.8987 68.7915 54.008C69.8155 55.1173 71.1808 55.672 72.8875 55.672ZM97.6065 59.64C96.4118 59.64 95.3452 59.4267 94.4065 59C93.4678 58.616 92.6572 58.0827 91.9745 57.4V66.296C91.9745 66.936 91.7398 67.4267 91.2705 67.768C90.8438 68.1093 90.3532 68.28 89.7985 68.28C89.2438 68.28 88.7318 68.1093 88.2625 67.768C87.8358 67.4267 87.6225 66.936 87.6225 66.296V42.616C87.6225 41.8907 87.8358 41.3573 88.2625 41.016C88.7318 40.632 89.2438 40.44 89.7985 40.44C90.3105 40.44 90.7798 40.6107 91.2065 40.952C91.6332 41.2507 91.8892 41.6987 91.9745 42.296C92.6572 41.656 93.4678 41.144 94.4065 40.76C95.3452 40.3333 96.4118 40.12 97.6065 40.12C99.4838 40.12 101.127 40.5467 102.535 41.4C103.985 42.2107 105.116 43.3413 105.927 44.792C106.737 46.2427 107.143 47.8853 107.143 49.72C107.143 51.5973 106.737 53.304 105.927 54.84C105.116 56.3333 103.985 57.5067 102.535 58.36C101.127 59.2133 99.4838 59.64 97.6065 59.64ZM97.2225 55.672C98.8865 55.672 100.231 55.1387 101.255 54.072C102.279 52.9627 102.791 51.512 102.791 49.72C102.791 48.0133 102.279 46.648 101.255 45.624C100.231 44.6 98.8865 44.088 97.2225 44.088C95.6012 44.088 94.3212 44.6 93.3825 45.624C92.4438 46.648 91.9745 48.0133 91.9745 49.72C91.9745 51.512 92.4438 52.9627 93.3825 54.072C94.3212 55.1387 95.6012 55.672 97.2225 55.672ZM113.238 59.64C112.683 59.64 112.171 59.4693 111.702 59.128C111.275 58.7867 111.062 58.296 111.062 57.656V42.296C111.062 41.5707 111.275 41.0373 111.702 40.696C112.171 40.312 112.683 40.12 113.238 40.12C113.792 40.12 114.283 40.312 114.71 40.696C115.179 41.0373 115.414 41.5707 115.414 42.296V57.656C115.414 58.296 115.179 58.7867 114.71 59.128C114.283 59.4693 113.792 59.64 113.238 59.64ZM113.302 36.6C112.491 36.6 111.787 36.344 111.19 35.832C110.635 35.2773 110.358 34.616 110.358 33.848C110.358 33.1227 110.635 32.504 111.19 31.992C111.787 31.4373 112.491 31.16 113.302 31.16C114.07 31.16 114.731 31.4373 115.286 31.992C115.84 32.504 116.118 33.1227 116.118 33.848C116.118 34.616 115.84 35.2773 115.286 35.832C114.731 36.344 114.07 36.6 113.302 36.6ZM129.519 59.64C126.319 59.64 123.823 58.7227 122.031 56.888C120.239 55.0533 119.343 52.5787 119.343 49.464C119.343 46.7333 120.239 44.4933 122.031 42.744C123.865 40.9947 126.212 40.12 129.071 40.12C131.844 40.12 134.063 40.9307 135.727 42.552C137.391 44.1307 138.223 46.0933 138.223 48.44C138.223 49.3787 137.967 50.0827 137.455 50.552C136.985 51.0213 136.367 51.256 135.599 51.256H124.463C124.036 51.256 123.887 51.4907 124.015 51.96C124.356 53.1547 125.039 54.0933 126.062 54.776C127.129 55.416 128.324 55.736 129.647 55.736C130.628 55.736 131.567 55.608 132.463 55.352C133.401 55.096 134.212 54.712 134.895 54.2C135.108 54.0293 135.385 53.944 135.727 53.944C136.196 53.944 136.623 54.1573 137.007 54.584C137.391 54.968 137.583 55.4373 137.583 55.992C137.583 56.248 137.54 56.504 137.455 56.76C137.369 57.016 137.177 57.272 136.878 57.528C135.769 58.3387 134.575 58.8933 133.295 59.192C132.057 59.4907 130.799 59.64 129.519 59.64ZM133.231 47.928C133.487 47.928 133.615 47.8 133.615 47.544C133.615 46.5627 133.167 45.7093 132.271 44.984C131.417 44.2587 130.351 43.896 129.071 43.896C127.961 43.896 126.895 44.1947 125.871 44.792C124.889 45.3893 124.292 46.1787 124.079 47.16C124.079 47.16 124.079 47.1813 124.079 47.224C124.036 47.3947 124.015 47.544 124.015 47.672C124.057 47.8 124.249 47.864 124.591 47.864L133.231 47.928Z" fill="black"/>
<path d="M155.705 59.64C155.15 59.64 154.659 59.448 154.233 59.064C153.806 58.68 153.593 58.168 153.593 57.528C153.593 57.3147 153.635 57.0373 153.721 56.696L161.72 35C162.019 34.2747 162.467 33.72 163.065 33.336C163.662 32.952 164.302 32.76 164.985 32.76C165.667 32.76 166.307 32.952 166.905 33.336C167.545 33.72 168.014 34.2747 168.312 35L176.825 56.696C176.91 57.0373 176.953 57.3147 176.953 57.528C176.953 58.168 176.739 58.68 176.313 59.064C175.886 59.448 175.395 59.64 174.841 59.64C174.457 59.64 174.051 59.5333 173.625 59.32C173.241 59.1493 172.942 58.8507 172.729 58.424L170.617 52.792C170.574 52.536 170.403 52.408 170.105 52.408H160.312C160.014 52.408 159.822 52.536 159.737 52.792L157.817 58.424C157.603 58.8507 157.283 59.1493 156.857 59.32C156.473 59.5333 156.089 59.64 155.705 59.64ZM162.233 48.568H167.993C168.249 48.568 168.441 48.4827 168.569 48.312C168.739 48.0987 168.782 47.8427 168.697 47.544L165.625 38.776C165.497 38.3493 165.305 38.136 165.049 38.136C164.75 38.136 164.537 38.3493 164.409 38.776L161.529 47.608C161.443 47.864 161.465 48.0987 161.593 48.312C161.763 48.4827 161.977 48.568 162.233 48.568ZM185.994 59.64C184.33 59.64 183.285 58.8507 182.858 57.272L178.954 42.936C178.911 42.808 178.89 42.68 178.89 42.552C178.89 42.424 178.89 42.3173 178.89 42.232C178.89 41.6347 179.082 41.144 179.466 40.76C179.893 40.3333 180.426 40.12 181.066 40.12C181.535 40.12 181.962 40.248 182.346 40.504C182.773 40.7173 183.029 41.0587 183.114 41.528L185.482 52.664C185.567 53.1333 185.759 53.368 186.058 53.368C186.357 53.368 186.57 53.1333 186.698 52.664L190.026 42.808C190.239 42.2107 190.602 41.784 191.114 41.528C191.626 41.2293 192.159 41.08 192.714 41.08C193.269 41.08 193.781 41.2293 194.25 41.528C194.762 41.784 195.103 42.2107 195.274 42.808L198.602 52.664C198.73 53.1333 198.943 53.368 199.242 53.368C199.541 53.368 199.733 53.1333 199.818 52.664L202.186 41.528C202.271 41.0587 202.506 40.7173 202.89 40.504C203.317 40.248 203.765 40.12 204.234 40.12C204.874 40.12 205.386 40.3333 205.77 40.76C206.197 41.144 206.41 41.6347 206.41 42.232C206.41 42.3173 206.41 42.424 206.41 42.552C206.41 42.68 206.389 42.808 206.346 42.936L202.442 57.272C202.015 58.8507 200.97 59.64 199.306 59.64C198.581 59.64 197.919 59.4267 197.322 59C196.767 58.5307 196.383 57.9547 196.17 57.272L193.226 47.928C193.055 47.3733 192.863 47.096 192.65 47.096C192.394 47.096 192.181 47.3733 192.01 47.928L189.13 57.272C188.917 57.9547 188.511 58.5307 187.914 59C187.359 59.4267 186.719 59.64 185.994 59.64ZM217.879 59.64C216.044 59.64 214.401 59.2133 212.951 58.36C211.5 57.5067 210.369 56.3333 209.559 54.84C208.748 53.304 208.343 51.5973 208.343 49.72C208.343 47.8853 208.748 46.2427 209.559 44.792C210.369 43.3413 211.5 42.2107 212.951 41.4C214.401 40.5467 216.044 40.12 217.879 40.12C219.073 40.12 220.14 40.3333 221.079 40.76C222.017 41.144 222.828 41.656 223.51 42.296C223.596 41.6987 223.852 41.2507 224.279 40.952C224.705 40.6107 225.175 40.44 225.687 40.44C226.241 40.44 226.732 40.632 227.159 41.016C227.628 41.3573 227.863 41.8907 227.863 42.616V57.656C227.863 58.296 227.628 58.7867 227.159 59.128C226.732 59.4693 226.241 59.64 225.687 59.64C225.132 59.64 224.62 59.4693 224.151 59.128C223.724 58.7867 223.51 58.296 223.51 57.656V57.4C222.828 58.0827 222.017 58.616 221.079 59C220.14 59.4267 219.073 59.64 217.879 59.64ZM218.263 55.672C219.884 55.672 221.164 55.1387 222.103 54.072C223.041 52.9627 223.51 51.512 223.51 49.72C223.51 48.0133 223.041 46.648 222.103 45.624C221.164 44.6 219.884 44.088 218.263 44.088C216.599 44.088 215.255 44.6 214.231 45.624C213.207 46.648 212.695 48.0133 212.695 49.72C212.695 51.512 213.207 52.9627 214.231 54.072C215.255 55.1387 216.599 55.672 218.263 55.672ZM237.037 49.528V57.656C237.037 58.296 236.802 58.7867 236.333 59.128C235.906 59.4693 235.416 59.64 234.861 59.64C234.306 59.64 233.794 59.4693 233.325 59.128C232.898 58.7867 232.685 58.296 232.685 57.656V42.616C232.685 41.8907 232.898 41.3573 233.325 41.016C233.794 40.632 234.306 40.44 234.861 40.44C235.416 40.44 235.906 40.632 236.333 41.016C236.802 41.3573 237.037 41.8907 237.037 42.616V42.872C237.634 42.0613 238.402 41.4 239.341 40.888C240.322 40.376 241.346 40.12 242.413 40.12C242.925 40.12 243.437 40.184 243.949 40.312C244.461 40.44 244.845 40.696 245.101 41.08C245.357 41.464 245.485 41.8907 245.485 42.36C245.485 42.9147 245.293 43.4267 244.909 43.896C244.568 44.3227 244.056 44.536 243.373 44.536C243.074 44.536 242.754 44.4933 242.413 44.408C242.114 44.3227 241.73 44.28 241.261 44.28C240.024 44.28 239 44.7493 238.189 45.688C237.421 46.6267 237.037 47.9067 237.037 49.528ZM256.644 59.64C253.444 59.64 250.948 58.7227 249.156 56.888C247.364 55.0533 246.468 52.5787 246.468 49.464C246.468 46.7333 247.364 44.4933 249.156 42.744C250.99 40.9947 253.337 40.12 256.196 40.12C258.969 40.12 261.188 40.9307 262.852 42.552C264.516 44.1307 265.348 46.0933 265.348 48.44C265.348 49.3787 265.092 50.0827 264.58 50.552C264.11 51.0213 263.492 51.256 262.724 51.256H251.588C251.161 51.256 251.012 51.4907 251.14 51.96C251.481 53.1547 252.164 54.0933 253.188 54.776C254.254 55.416 255.449 55.736 256.772 55.736C257.753 55.736 258.692 55.608 259.588 55.352C260.526 55.096 261.337 54.712 262.02 54.2C262.233 54.0293 262.51 53.944 262.852 53.944C263.321 53.944 263.748 54.1573 264.132 54.584C264.516 54.968 264.708 55.4373 264.708 55.992C264.708 56.248 264.665 56.504 264.58 56.76C264.494 57.016 264.302 57.272 264.003 57.528C262.894 58.3387 261.7 58.8933 260.42 59.192C259.182 59.4907 257.924 59.64 256.644 59.64ZM260.356 47.928C260.612 47.928 260.74 47.8 260.74 47.544C260.74 46.5627 260.292 45.7093 259.396 44.984C258.542 44.2587 257.476 43.896 256.196 43.896C255.086 43.896 254.02 44.1947 252.996 44.792C252.014 45.3893 251.417 46.1787 251.204 47.16C251.204 47.16 251.204 47.1813 251.204 47.224C251.161 47.3947 251.14 47.544 251.14 47.672C251.182 47.8 251.374 47.864 251.716 47.864L260.356 47.928Z" fill="#E49D29"/>
</g>
<g id="birds">
<path id="Vector_2" d="M22.4168 23.1301L40.676 13.8913C33.1481 8.05106 25.7345 14.1002 21.1757 19.5575C17.0369 11.5878 6.83882 14.0436 6.83882 14.0436L21.4665 38.3943C22.9219 32.8769 23.2515 27.5819 22.4168 23.1301Z" fill="#3F3D56"/>
<path id="Vector_3" d="M156.552 19.0489L142.282 4.00609C140.371 15.3083 148.021 20.2014 154.129 22.2916C149.235 31.0213 155.021 40.852 155.021 40.852L169.236 12.0171C164.237 13.3453 159.836 15.7848 156.552 19.0489Z" fill="#3F3D56"/>
</g>
</g>
</svg>
