<svg width="208" height="168" viewBox="0 0 208 168" fill="none" xmlns="http://www.w3.org/2000/svg">
<g id="detour-slowdown-sign">
<g id="Vector">
<path d="M201.618 62.8421H131.618V45.1579H157.618C159.209 45.1579 160.735 44.5258 161.86 43.4005C162.986 42.2753 163.618 40.7492 163.618 39.1579V20C163.618 18.4087 162.986 16.8826 161.86 15.7574C160.735 14.6321 159.209 14 157.618 14H131.618V8C131.618 5.87827 130.775 3.84343 129.275 2.34314C127.774 0.842849 125.739 0 123.618 0C121.496 0 119.461 0.842849 117.961 2.34314C116.461 3.84343 115.618 5.87827 115.618 8V14H19.527C18.2848 14 17.0733 14.3855 16.0595 15.1034L2.53253 24.6823C1.74974 25.2366 1.11124 25.9706 0.670593 26.8225C0.229945 27.6745 0 28.6197 0 29.5789C0 30.5381 0.229945 31.4833 0.670593 32.3353C1.11124 33.1873 1.74974 33.9212 2.53253 34.4755L16.0595 44.0545C17.0733 44.7724 18.2848 45.1579 19.527 45.1579H115.618V62.8421H45.6177C44.0264 62.8421 42.5003 63.4743 41.3751 64.5995C40.2499 65.7247 39.6177 67.2508 39.6177 68.8421V88C39.6177 89.5913 40.2499 91.1175 41.3751 92.2427C42.5003 93.3679 44.0264 94 45.6177 94H115.618V160C115.618 162.122 116.461 164.157 117.961 165.657C119.461 167.157 121.496 168 123.618 168C125.739 168 127.774 167.157 129.275 165.657C130.775 164.157 131.618 162.122 131.618 160V94H201.618C203.209 94 204.735 93.3679 205.86 92.2427C206.986 91.1175 207.618 89.5913 207.618 88V68.8421C207.618 68.0542 207.463 67.274 207.161 66.546C206.859 65.8181 206.418 65.1566 205.86 64.5995C205.303 64.0423 204.642 63.6004 203.914 63.2988C203.186 62.9973 202.406 62.8421 201.618 62.8421Z" fill="#3F3D56"/>
<path d="M83.6177 30.5H33.6177C32.6895 30.5 31.7992 30.1313 31.1428 29.4749C30.4865 28.8185 30.1177 27.9283 30.1177 27C30.1177 26.0717 30.4865 25.1815 31.1428 24.5251C31.7992 23.8688 32.6895 23.5 33.6177 23.5H83.6177C84.546 23.5 85.4362 23.8688 86.0926 24.5251C86.749 25.1815 87.1177 26.0717 87.1177 27C87.1177 27.9283 86.749 28.8185 86.0926 29.4749C85.4362 30.1313 84.546 30.5 83.6177 30.5Z" fill="#E49D29"/>
<path d="M145.618 81.5H95.6177C94.6895 81.5 93.7993 81.1312 93.1429 80.4749C92.4865 79.8185 92.1177 78.9283 92.1177 78C92.1177 77.0717 92.4865 76.1815 93.1429 75.5251C93.7993 74.8688 94.6895 74.5 95.6177 74.5H120.618H145.618C146.546 74.5 147.436 74.8688 148.093 75.5251C148.749 76.1815 149.118 77.0717 149.118 78C149.118 78.9283 148.749 79.8185 148.093 80.4749C147.436 81.1312 146.546 81.5 145.618 81.5Z" fill="white"/>
</g>
<g id="DETOUR" filter="url(#filter0_i_3_10)">
<path d="M104.283 33.2413L102.581 33.2509L102.584 31.994L104.276 31.9845C104.699 31.9821 105.054 31.8852 105.343 31.6938C105.632 31.4988 105.849 31.2165 105.994 30.8469C106.142 30.4772 106.215 30.031 106.212 29.5082L106.21 29.1269C106.208 28.7258 106.163 28.3734 106.075 28.0695C105.991 27.7656 105.866 27.5103 105.7 27.3035C105.534 27.0968 105.331 26.9422 105.09 26.8397C104.85 26.7336 104.574 26.6815 104.262 26.6832L102.511 26.6931L102.504 25.4309L104.255 25.421C104.778 25.4181 105.257 25.5049 105.691 25.6815C106.129 25.8545 106.508 26.1048 106.828 26.4324C107.149 26.7601 107.396 27.1526 107.571 27.6099C107.749 28.0637 107.84 28.5698 107.843 29.1284L107.845 29.499C107.848 30.054 107.763 30.5612 107.59 31.0205C107.421 31.4798 107.178 31.875 106.861 32.2063C106.548 32.5339 106.171 32.7884 105.732 32.97C105.296 33.1479 104.813 33.2383 104.283 33.2413ZM103.45 25.4256L103.494 33.2458L101.882 33.2548L101.838 25.4346L103.45 25.4256ZM114.277 31.9282L114.284 33.185L110.122 33.2084L110.114 31.9516L114.277 31.9282ZM110.604 25.3853L110.648 33.2055L109.037 33.2145L108.993 25.3943L110.604 25.3853ZM113.715 28.5529L113.722 29.7774L110.102 29.7978L110.095 28.5732L113.715 28.5529ZM114.235 25.3648L114.242 26.627L110.085 26.6504L110.077 25.3882L114.235 25.3648ZM118.784 25.3392L118.828 33.1594L117.222 33.1684L117.178 25.3482L118.784 25.3392ZM121.19 25.3256L121.197 26.5878L114.816 26.6238L114.809 25.3616L121.19 25.3256ZM128.403 29.0126L128.405 29.3832C128.408 29.9776 128.331 30.5116 128.172 30.9851C128.014 31.4587 127.789 31.8628 127.497 32.1974C127.205 32.5285 126.856 32.7829 126.449 32.9607C126.045 33.1384 125.596 33.2287 125.102 33.2315C124.611 33.2342 124.161 33.149 123.752 32.9759C123.347 32.8027 122.994 32.5522 122.695 32.2245C122.396 31.8932 122.163 31.4916 121.996 31.0199C121.832 30.5482 121.748 30.0151 121.745 29.4207L121.743 29.0501C121.739 28.4521 121.817 27.9182 121.975 27.4482C122.134 26.9746 122.359 26.5705 122.651 26.2359C122.946 25.9012 123.296 25.645 123.699 25.4673C124.106 25.2895 124.555 25.1993 125.046 25.1965C125.54 25.1937 125.99 25.2789 126.395 25.4521C126.805 25.6252 127.157 25.8775 127.452 26.2088C127.752 26.5402 127.983 26.9417 128.147 27.4134C128.314 27.8816 128.4 28.4146 128.403 29.0126ZM126.778 29.3924L126.775 29.011C126.773 28.5957 126.733 28.2307 126.656 27.916C126.579 27.6013 126.467 27.337 126.319 27.1229C126.171 26.9089 125.991 26.7488 125.779 26.6426C125.567 26.5328 125.325 26.4786 125.053 26.4802C124.781 26.4817 124.54 26.5386 124.329 26.6507C124.122 26.7593 123.946 26.9215 123.8 27.1371C123.658 27.3528 123.55 27.6184 123.477 27.9339C123.403 28.2494 123.368 28.6149 123.37 29.0302L123.372 29.4116C123.375 29.8233 123.414 30.1883 123.491 30.5066C123.568 30.8213 123.681 31.0874 123.829 31.305C123.977 31.519 124.157 31.6809 124.369 31.7907C124.581 31.9006 124.823 31.9547 125.095 31.9532C125.367 31.9516 125.608 31.8948 125.819 31.7826C126.029 31.6704 126.206 31.5065 126.348 31.2908C126.49 31.0716 126.598 30.8042 126.671 30.4887C126.744 30.1696 126.78 29.8041 126.778 29.3924ZM133.86 25.2543L135.466 25.2452L135.495 30.4121C135.499 31.0137 135.373 31.5211 135.117 31.9343C134.865 32.3475 134.514 32.6592 134.064 32.8694C133.618 33.0796 133.103 33.1864 132.519 33.1897C131.936 33.193 131.416 33.0921 130.96 32.8869C130.508 32.6818 130.151 32.3741 129.891 31.9637C129.635 31.5534 129.505 31.0474 129.501 30.4459L129.472 25.279L131.083 25.2699L131.113 30.4368C131.115 30.7877 131.172 31.0739 131.284 31.2952C131.396 31.5166 131.556 31.6786 131.765 31.7813C131.977 31.884 132.226 31.9345 132.512 31.9329C132.806 31.9312 133.054 31.8779 133.258 31.7729C133.465 31.6679 133.622 31.5041 133.728 31.2815C133.837 31.0588 133.891 30.7721 133.889 30.4212L133.86 25.2543ZM136.793 25.2377L139.709 25.2213C140.307 25.2179 140.822 25.3046 141.252 25.4812C141.687 25.6578 142.021 25.9209 142.256 26.2705C142.491 26.6201 142.609 27.0509 142.612 27.5629C142.615 27.9819 142.545 28.3421 142.403 28.6437C142.265 28.9417 142.068 29.1917 141.811 29.3936C141.558 29.592 141.26 29.7512 140.917 29.8713L140.408 30.1427L137.873 30.157L137.856 28.9003L139.741 28.8897C140.024 28.8881 140.258 28.8366 140.443 28.7353C140.629 28.634 140.768 28.4936 140.86 28.314C140.956 28.1344 141.003 27.9265 141.002 27.6902C141 27.4395 140.952 27.2231 140.858 27.041C140.764 26.859 140.622 26.7201 140.432 26.6245C140.241 26.5289 140.003 26.4819 139.716 26.4835L138.411 26.4909L138.448 33.0489L136.837 33.0579L136.793 25.2377ZM141.209 33.0333L139.406 29.5576L141.109 29.5372L142.933 32.9484L142.933 33.0236L141.209 33.0333Z" fill="#E49D29"/>
</g>
<g id="or" filter="url(#filter1_i_3_10)">
<path d="M118.662 53.2874L118.662 53.1638C118.659 52.7449 118.718 52.3561 118.838 51.9973C118.957 51.635 119.131 51.3207 119.359 51.0544C119.586 50.7846 119.863 50.5753 120.188 50.4267C120.513 50.2745 120.878 50.1972 121.282 50.1949C121.69 50.1926 122.058 50.2658 122.384 50.4143C122.715 50.5593 122.995 50.7654 123.226 51.0326C123.46 51.2963 123.639 51.6086 123.763 51.9696C123.887 52.3269 123.95 52.7151 123.952 53.134L123.953 53.2576C123.955 53.6765 123.896 54.0654 123.777 54.4241C123.657 54.7829 123.481 55.0972 123.25 55.367C123.023 55.6333 122.746 55.8425 122.421 55.9948C122.1 56.1434 121.735 56.2188 121.327 56.2211C120.919 56.2234 120.551 56.1521 120.225 56.0071C119.898 55.8586 119.617 55.6525 119.383 55.3888C119.152 55.1216 118.975 54.8092 118.851 54.4519C118.728 54.0945 118.665 53.7063 118.662 53.2874ZM119.655 53.1582L119.656 53.2818C119.658 53.5718 119.693 53.8455 119.763 54.103C119.832 54.3568 119.935 54.5818 120.073 54.778C120.213 54.9741 120.388 55.1289 120.596 55.2423C120.804 55.3522 121.047 55.4063 121.322 55.4048C121.594 55.4032 121.832 55.3464 122.036 55.2342C122.243 55.1185 122.414 54.9617 122.549 54.764C122.684 54.5663 122.784 54.3402 122.851 54.0856C122.921 53.8274 122.955 53.5532 122.954 53.2632L122.953 53.1397C122.951 52.8532 122.914 52.5831 122.841 52.3293C122.772 52.0718 122.666 51.845 122.526 51.6489C122.388 51.4491 122.216 51.2926 122.007 51.1791C121.803 51.0657 121.562 51.0098 121.287 51.0113C121.015 51.0129 120.775 51.0715 120.568 51.1873C120.365 51.303 120.194 51.4615 120.055 51.6628C119.92 51.8605 119.819 52.0885 119.753 52.3467C119.686 52.6013 119.654 52.8718 119.655 53.1582ZM126.181 51.1879L126.208 56.0862L125.215 56.0918L125.182 50.2804L126.149 50.2749L126.181 51.1879ZM127.991 50.2323L127.991 51.1562C127.908 51.1387 127.829 51.1284 127.754 51.1253C127.683 51.1185 127.6 51.1154 127.507 51.1159C127.278 51.1172 127.076 51.1542 126.901 51.2268C126.726 51.2994 126.578 51.4005 126.457 51.5301C126.336 51.6597 126.24 51.8142 126.169 51.9936C126.102 52.1694 126.059 52.3631 126.038 52.5744L125.76 52.7371C125.758 52.3862 125.79 52.0566 125.856 51.7483C125.926 51.44 126.034 51.1672 126.179 50.9301C126.325 50.6893 126.51 50.5021 126.735 50.3683C126.963 50.231 127.235 50.1614 127.55 50.1596C127.622 50.1592 127.704 50.1677 127.797 50.1851C127.89 50.1989 127.955 50.2146 127.991 50.2323Z" fill="#E49D29"/>
</g>
<g id="SLOW" filter="url(#filter2_i_3_10)">
<path d="M63.4525 80.4553C63.4504 80.3029 63.425 80.1666 63.3765 80.0461C63.3318 79.9217 63.2482 79.8096 63.1257 79.7097C63.0031 79.606 62.8318 79.5048 62.6116 79.4063C62.3915 79.3078 62.1069 79.2063 61.7577 79.1018C61.3693 78.9822 61.0002 78.8467 60.6504 78.6953C60.3045 78.5438 59.9973 78.3664 59.7288 78.1631C59.4642 77.9558 59.2538 77.7146 59.0976 77.4394C58.9453 77.1642 58.8666 76.843 58.8615 76.4758C58.8566 76.1204 58.9302 75.7971 59.0824 75.5058C59.2346 75.2107 59.4498 74.9577 59.7281 74.7468C60.0064 74.532 60.3362 74.3652 60.7174 74.2466C61.1025 74.128 61.5255 74.0655 61.9864 74.059C62.6152 74.0503 63.1656 74.1559 63.6374 74.3759C64.1093 74.5959 64.4769 74.9014 64.7401 75.2923C65.0073 75.6832 65.1444 76.1325 65.1515 76.6402L63.4056 76.6645C63.4021 76.4146 63.3463 76.1966 63.2383 76.0106C63.134 75.8206 62.9757 75.6724 62.7633 75.5659C62.5547 75.4595 62.2923 75.4084 61.9759 75.4128C61.6713 75.4171 61.418 75.4675 61.2162 75.564C61.0144 75.6567 60.8638 75.7819 60.7644 75.9395C60.6649 76.0933 60.6166 76.2658 60.6192 76.4572C60.6212 76.6017 60.6582 76.7321 60.7301 76.8483C60.806 76.9644 60.9169 77.0723 61.0628 77.1718C61.2087 77.2713 61.3878 77.3646 61.6 77.4515C61.8121 77.5384 62.0575 77.6228 62.336 77.7049C62.8027 77.8391 63.2131 77.9916 63.5671 78.1624C63.925 78.3332 64.2245 78.5264 64.4658 78.7418C64.7072 78.9572 64.8903 79.2027 65.0152 79.4783C65.1402 79.754 65.2051 80.0676 65.21 80.4191C65.2151 80.7901 65.1475 81.1231 65.0071 81.4181C64.8666 81.713 64.6611 81.964 64.3905 82.1709C64.1199 82.3778 63.7959 82.5366 63.4185 82.6474C63.0411 82.7581 62.6181 82.8167 62.1494 82.8232C61.7276 82.8291 61.3108 82.7802 60.8992 82.6766C60.4875 82.569 60.1121 82.4043 59.773 82.1824C59.4379 81.9605 59.1683 81.6752 58.9642 81.3264C58.7601 80.9777 58.6547 80.5631 58.648 80.0826L60.4115 80.0581C60.4152 80.3237 60.4593 80.5477 60.5439 80.7301C60.6285 80.9126 60.7458 81.0594 60.8958 81.1706C61.0497 81.2818 61.2305 81.3613 61.4382 81.4092C61.6499 81.457 61.8807 81.4792 62.1306 81.4757C62.4353 81.4715 62.6847 81.425 62.8788 81.3364C63.0768 81.2477 63.2216 81.1265 63.3132 80.9729C63.4087 80.8192 63.4552 80.6467 63.4525 80.4553ZM71.9012 81.1991L71.9202 82.57L67.6257 82.6298L67.6067 81.2589L71.9012 81.1991ZM68.0753 74.0915L68.194 82.6219L66.4364 82.6464L66.3177 74.1159L68.0753 74.0915ZM79.4863 77.9994L79.4919 78.4037C79.5009 79.0521 79.4211 79.6353 79.2526 80.1533C79.084 80.6713 78.8421 81.1142 78.5268 81.4819C78.2116 81.8457 77.8326 82.1264 77.39 82.324C76.9513 82.5215 76.4625 82.624 75.9234 82.6315C75.3883 82.639 74.8968 82.5501 74.4489 82.3649C74.0049 82.1797 73.6182 81.9096 73.2891 81.5548C72.9598 81.1961 72.7018 80.7602 72.5149 80.2471C72.332 79.734 72.236 79.1532 72.227 78.5048L72.2213 78.1006C72.2123 77.4483 72.292 76.8651 72.4607 76.351C72.6293 75.833 72.8712 75.3901 73.1864 75.0224C73.5055 74.6546 73.8845 74.372 74.3232 74.1744C74.7658 73.9769 75.2546 73.8743 75.7897 73.8669C76.3287 73.8594 76.8202 73.9483 77.2643 74.1335C77.7122 74.3187 78.0988 74.5907 78.4242 74.9495C78.7534 75.3082 79.0095 75.7441 79.1925 76.2573C79.3793 76.7664 79.4772 77.3472 79.4863 77.9994ZM77.7167 78.4284L77.7109 78.0124C77.7046 77.5594 77.658 77.1615 77.5712 76.8189C77.4844 76.4764 77.3593 76.189 77.1959 75.9569C77.0325 75.7248 76.8348 75.5517 76.6027 75.4378C76.3705 75.3199 76.1061 75.263 75.8092 75.2672C75.5124 75.2713 75.2496 75.3355 75.0208 75.4598C74.7959 75.5801 74.605 75.7586 74.4481 75.9952C74.2951 76.2317 74.18 76.5224 74.1028 76.8672C74.0256 77.2121 73.9901 77.6111 73.9964 78.0641L74.0022 78.4801C74.0084 78.9293 74.055 79.3271 74.1419 79.6736C74.2287 80.0162 74.3538 80.3055 74.5173 80.5415C74.6807 80.7736 74.8784 80.9486 75.1106 81.0665C75.3427 81.1844 75.6072 81.2412 75.904 81.2371C76.2009 81.233 76.4637 81.1688 76.6924 81.0445C76.9212 80.9202 77.1121 80.7398 77.265 80.5033C77.418 80.2628 77.533 79.9702 77.6103 79.6253C77.6875 79.2766 77.7229 78.8776 77.7167 78.4284ZM82.8515 81.0642L84.4507 73.8635L85.3998 73.8503L85.6332 75.0425L83.9249 82.4029L82.9055 82.4171L82.8515 81.0642ZM81.8787 73.8993L83.3847 81.0568L83.2863 82.4118L82.1497 82.4276L80.1386 73.9236L81.8787 73.8993ZM87.2101 80.9743L88.4991 73.8072L90.2392 73.783L88.4714 82.3396L87.3348 82.3555L87.2101 80.9743ZM85.9329 73.8429L87.744 81.0254L87.7156 82.3502L86.6962 82.3644L84.7719 75.0486L84.9897 73.856L85.9329 73.8429Z" fill="#E49D29"/>
</g>
<g id="DOWN" filter="url(#filter3_i_3_10)">
<path d="M154.531 83.0199L152.673 83.0089L152.693 81.6379L154.539 81.6488C155 81.6515 155.389 81.5503 155.707 81.3452C156.024 81.1361 156.265 80.8309 156.427 80.4295C156.593 80.0282 156.678 79.5423 156.682 78.972L156.684 78.556C156.687 78.1185 156.642 77.7335 156.55 77.4009C156.463 77.0684 156.33 76.7883 156.151 76.5606C155.973 76.333 155.753 76.1618 155.492 76.047C155.231 75.9282 154.931 75.8678 154.591 75.8658L152.681 75.8545L152.689 74.4775L154.599 74.4889C155.169 74.4923 155.69 74.593 156.162 74.7911C156.637 74.9854 157.048 75.2632 157.393 75.6246C157.739 75.9861 158.004 76.4173 158.188 76.9184C158.377 77.4157 158.469 77.969 158.465 78.5783L158.463 78.9826C158.459 79.5881 158.36 80.1402 158.166 80.6391C157.976 81.138 157.705 81.566 157.356 81.9234C157.01 82.2768 156.596 82.5497 156.114 82.7422C155.637 82.9307 155.109 83.0233 154.531 83.0199ZM153.72 74.4837L153.669 83.0148L151.912 83.0043L151.962 74.4732L153.72 74.4837ZM166.75 78.6275L166.748 79.0318C166.744 79.6802 166.653 80.2617 166.474 80.7763C166.295 81.2909 166.044 81.7288 165.722 82.0902C165.4 82.4477 165.015 82.7208 164.569 82.9096C164.126 83.0983 163.635 83.1911 163.096 83.1879C162.561 83.1848 162.072 83.0861 161.627 82.8921C161.187 82.6981 160.806 82.4204 160.484 82.0591C160.162 81.6939 159.912 81.253 159.736 80.7363C159.563 80.2196 159.479 79.6371 159.483 78.9887L159.485 78.5844C159.489 77.932 159.58 77.3505 159.759 76.8399C159.938 76.3253 160.188 75.8873 160.511 75.526C160.837 75.1646 161.222 74.8895 161.664 74.7008C162.111 74.512 162.602 74.4192 163.137 74.4224C163.676 74.4256 164.165 74.5242 164.606 74.7182C165.05 74.9123 165.431 75.1919 165.749 75.5571C166.071 75.9223 166.319 76.3632 166.491 76.8799C166.668 77.3926 166.754 77.9752 166.75 78.6275ZM164.973 79.0213L164.975 78.6053C164.978 78.1521 164.939 77.7535 164.859 77.4092C164.779 77.065 164.66 76.7752 164.501 76.5399C164.342 76.3046 164.148 76.1276 163.918 76.0091C163.689 75.8866 163.425 75.8245 163.128 75.8228C162.831 75.821 162.567 75.88 162.336 75.9997C162.109 76.1155 161.915 76.2902 161.753 76.5236C161.595 76.757 161.475 77.0454 161.391 77.3886C161.306 77.7319 161.263 78.1301 161.26 78.5832L161.258 78.9992C161.255 79.4484 161.294 79.8471 161.374 80.1952C161.454 80.5395 161.573 80.8312 161.732 81.0704C161.891 81.3057 162.085 81.4846 162.315 81.6071C162.544 81.7296 162.808 81.7917 163.105 81.7934C163.401 81.7952 163.666 81.7362 163.897 81.6165C164.128 81.4968 164.322 81.3202 164.48 81.0867C164.638 80.8494 164.758 80.5591 164.843 80.2158C164.927 79.8687 164.97 79.4705 164.973 79.0213ZM170.054 81.7585L171.796 74.591L172.745 74.5966L172.955 75.7932L171.101 83.1183L170.081 83.1122L170.054 81.7585ZM169.224 74.5757L170.587 81.7617L170.462 83.1145L169.325 83.1077L167.484 74.5654L169.224 74.5757ZM174.414 81.7551L175.845 74.615L177.585 74.6254L175.648 83.1453L174.511 83.1385L174.414 81.7551ZM173.278 74.5998L174.946 81.8169L174.892 83.1408L173.872 83.1347L172.094 75.7822L172.335 74.5942L173.278 74.5998ZM185.483 74.6723L185.433 83.2034L183.675 83.1929L180.281 77.4539L180.247 83.1726L178.489 83.1621L178.54 74.631L180.298 74.6415L183.697 80.3864L183.731 74.6619L185.483 74.6723Z" fill="#E49D29"/>
</g>
</g>
<defs>
<filter id="filter0_i_3_10" x="101.838" y="25.096" width="41.0959" height="12.2663" filterUnits="userSpaceOnUse" color-interpolation-filters="sRGB">
<feFlood flood-opacity="0" result="BackgroundImageFix"/>
<feBlend mode="normal" in="SourceGraphic" in2="BackgroundImageFix" result="shape"/>
<feColorMatrix in="SourceAlpha" type="matrix" values="0 0 0 0 0 0 0 0 0 0 0 0 0 0 0 0 0 0 127 0" result="hardAlpha"/>
<feOffset dy="4"/>
<feGaussianBlur stdDeviation="2"/>
<feComposite in2="hardAlpha" operator="arithmetic" k2="-1" k3="1"/>
<feColorMatrix type="matrix" values="0 0 0 0 0 0 0 0 0 0 0 0 0 0 0 0 0 0 0.25 0"/>
<feBlend mode="normal" in2="shape" result="effect1_innerShadow_3_10"/>
</filter>
<filter id="filter1_i_3_10" x="118.645" y="50.1572" width="9.3795" height="10.0789" filterUnits="userSpaceOnUse" color-interpolation-filters="sRGB">
<feFlood flood-opacity="0" result="BackgroundImageFix"/>
<feBlend mode="normal" in="SourceGraphic" in2="BackgroundImageFix" result="shape"/>
<feColorMatrix in="SourceAlpha" type="matrix" values="0 0 0 0 0 0 0 0 0 0 0 0 0 0 0 0 0 0 127 0" result="hardAlpha"/>
<feOffset dy="4"/>
<feGaussianBlur stdDeviation="2"/>
<feComposite in2="hardAlpha" operator="arithmetic" k2="-1" k3="1"/>
<feColorMatrix type="matrix" values="0 0 0 0 0 0 0 0 0 0 0 0 0 0 0 0 0 0 0.25 0"/>
<feBlend mode="normal" in2="shape" result="effect1_innerShadow_3_10"/>
</filter>
<filter id="filter2_i_3_10" x="58.5648" y="73.6658" width="31.7947" height="13.2057" filterUnits="userSpaceOnUse" color-interpolation-filters="sRGB">
<feFlood flood-opacity="0" result="BackgroundImageFix"/>
<feBlend mode="normal" in="SourceGraphic" in2="BackgroundImageFix" result="shape"/>
<feColorMatrix in="SourceAlpha" type="matrix" values="0 0 0 0 0 0 0 0 0 0 0 0 0 0 0 0 0 0 127 0" result="hardAlpha"/>
<feOffset dy="4"/>
<feGaussianBlur stdDeviation="2"/>
<feComposite in2="hardAlpha" operator="arithmetic" k2="-1" k3="1"/>
<feColorMatrix type="matrix" values="0 0 0 0 0 0 0 0 0 0 0 0 0 0 0 0 0 0 0.25 0"/>
<feBlend mode="normal" in2="shape" result="effect1_innerShadow_3_10"/>
</filter>
<filter id="filter3_i_3_10" x="151.911" y="74.356" width="33.5729" height="12.9645" filterUnits="userSpaceOnUse" color-interpolation-filters="sRGB">
<feFlood flood-opacity="0" result="BackgroundImageFix"/>
<feBlend mode="normal" in="SourceGraphic" in2="BackgroundImageFix" result="shape"/>
<feColorMatrix in="SourceAlpha" type="matrix" values="0 0 0 0 0 0 0 0 0 0 0 0 0 0 0 0 0 0 127 0" result="hardAlpha"/>
<feOffset dy="4"/>
<feGaussianBlur stdDeviation="2"/>
<feComposite in2="hardAlpha" operator="arithmetic" k2="-1" k3="1"/>
<feColorMatrix type="matrix" values="0 0 0 0 0 0 0 0 0 0 0 0 0 0 0 0 0 0 0.25 0"/>
<feBlend mode="normal" in2="shape" result="effect1_innerShadow_3_10"/>
</filter>
</defs>
</svg>
