<svg width="256" height="379" viewBox="0 0 256 379" fill="none" xmlns="http://www.w3.org/2000/svg">
<g id="sunglasses-guy">
<path id="Vector" d="M42.3413 208.216C42.3413 208.216 43.6871 260.703 38.3039 266.086C32.9206 271.47 102.903 430.275 179.614 360.293C256.325 290.311 197.11 262.049 197.11 262.049C197.11 262.049 168.848 209.562 170.194 204.179C171.539 198.796 45.033 204.179 45.033 204.179L42.3413 208.216Z" fill="#FFB8B8"/>
<path id="Vector_2" opacity="0.1" d="M42.3413 208.216C42.3413 208.216 43.6871 260.703 38.3039 266.086C32.9206 271.47 102.903 430.275 179.614 360.293C256.325 290.311 197.11 262.049 197.11 262.049C197.11 262.049 168.848 209.562 170.194 204.179C171.539 198.796 45.033 204.179 45.033 204.179L42.3413 208.216Z" fill="black"/>
<path id="Vector_3" d="M115.015 258.011C170.017 258.011 214.605 213.423 214.605 158.421C214.605 103.419 170.017 58.8313 115.015 58.8313C60.0131 58.8313 15.4251 103.419 15.4251 158.421C15.4251 213.423 60.0131 258.011 115.015 258.011Z" fill="#FFB8B8"/>
<path id="Vector_4" d="M35.705 59.4461L17.2829 52.7471C17.2829 52.7471 55.8017 14.2284 109.393 17.578L94.3204 2.50533C94.3204 2.50533 131.165 -10.8924 164.659 24.2768C182.267 42.7645 202.639 64.4958 215.339 88.9758H235.067L226.833 105.444L255.653 121.912L226.072 118.954C228.875 133.172 227.91 147.875 223.275 161.605L216.576 180.027C216.576 180.027 189.78 126.435 189.78 119.736V136.484C189.78 136.484 171.358 121.411 171.358 111.363L161.31 123.086L156.285 104.664L94.3204 123.086L104.369 108.013L65.85 113.038L80.923 94.6155C80.923 94.6155 37.3801 116.387 35.705 134.809C34.0299 153.231 12.2593 176.677 12.2593 176.677L2.21085 159.93C2.21085 159.93 -12.8621 84.5669 35.705 59.4461Z" fill="#2F2E41"/>
<path id="Vector_5" d="M203.503 163.824C203.503 163.824 206.775 186.549 191.063 199.983C186.051 204.199 179.899 206.829 173.389 207.541C166.879 208.253 160.303 207.014 154.499 203.981C149.291 201.252 144.661 197.54 140.864 193.051C139.165 191.078 137.598 188.994 136.175 186.813C134.109 183.64 132.288 180.315 130.727 176.866C129.743 174.718 128.804 172.419 127.909 169.97C127.737 169.5 127.577 169.039 127.423 168.581C119.265 144.333 135.133 137.259 149.699 135.563C152.755 135.219 155.83 135.064 158.905 135.099C162.517 135.116 166.123 135.371 169.701 135.861C169.701 135.861 169.999 135.864 170.536 135.885C173.312 136.014 176.076 136.321 178.812 136.804C190.065 138.78 207.288 144.901 203.503 163.824Z" fill="#5D98CA"/>
<path id="Vector_6" d="M103.326 169.97C96.1534 189.658 85.8253 199.307 76.7357 203.981C70.931 207.014 64.3559 208.253 57.8456 207.541C51.3352 206.829 45.1833 204.199 40.1711 199.983C39.1969 199.151 38.2734 198.262 37.4055 197.319C35.6243 195.391 34.0762 193.26 32.793 190.97C31.1696 188.057 29.9213 184.95 29.0779 181.724C28.151 178.185 27.6182 174.554 27.4892 170.898C27.3769 168.537 27.4581 166.172 27.7319 163.824C24.1889 146.109 39.0557 139.616 50.201 137.237C53.424 136.555 56.6935 136.114 59.9821 135.919C60.9685 135.864 61.534 135.861 61.534 135.861C67.3964 135.069 73.3256 134.893 79.2247 135.335C94.617 136.577 113.051 143.276 103.326 169.97Z" fill="#5D98CA"/>
<path id="Vector_7" opacity="0.2" d="M59.9822 135.919L29.0779 181.724C28.151 178.185 27.6182 174.554 27.4892 170.898L50.2011 137.237C53.4241 136.555 56.6935 136.114 59.9822 135.919Z" fill="white"/>
<path id="Vector_8" opacity="0.2" d="M79.2248 135.335L37.4055 197.319C35.6243 195.391 34.0762 193.26 32.793 190.97L70.467 135.132C73.3878 135.041 76.3113 135.109 79.2248 135.335Z" fill="white"/>
<path id="Vector_9" opacity="0.2" d="M158.905 135.099L130.727 176.866C129.743 174.718 128.804 172.419 127.909 169.97C127.737 169.5 127.577 169.039 127.423 168.581L149.699 135.563C152.755 135.219 155.83 135.064 158.905 135.099Z" fill="white"/>
<path id="Vector_10" opacity="0.2" d="M178.812 136.804L140.864 193.051C139.165 191.078 137.598 188.994 136.175 186.813L170.536 135.885C173.312 136.014 176.076 136.321 178.812 136.804Z" fill="white"/>
<path id="Vector_11" d="M210.878 161.673H203.845C206.957 136.156 169.701 135.861 169.701 135.861C163.794 135.065 157.82 134.893 151.878 135.347V135.246H79.0497V135.323C73.2082 134.898 67.3386 135.079 61.5341 135.861C61.5341 135.861 24.2775 136.156 27.3901 161.673H20.6644V168.434H27.4515C27.3835 175.778 28.8413 190.296 40.1712 199.983C45.1835 204.199 51.3354 206.829 57.8458 207.541C64.3561 208.253 70.9311 207.014 76.7358 203.981C85.8255 199.307 96.1536 189.658 103.326 169.97C105.504 164.711 106.356 158.997 105.806 153.331C112.343 153.002 118.892 153.002 125.428 153.331C124.879 158.997 125.731 164.711 127.909 169.97C135.081 189.658 145.409 199.307 154.499 203.981C160.304 207.014 166.879 208.253 173.389 207.541C179.899 206.829 186.051 204.199 191.063 199.983C202.393 190.296 203.851 175.778 203.783 168.434H210.878V161.673ZM100.087 170.096C93.2619 188.832 83.3056 197.596 74.766 201.64C69.6718 204.069 63.9952 205.011 58.3894 204.357C52.7836 203.703 47.4763 201.48 43.0781 197.943C32.2983 189.179 30.8633 175.71 30.9033 168.845C30.9218 166.117 30.7988 163.394 30.6912 160.668C29.84 139.247 61.9827 138.995 61.9827 138.995C61.9827 138.995 114.379 130.87 100.087 170.096ZM125.712 151.792C118.992 151.271 112.242 151.271 105.523 151.792C103.837 144.268 98.155 140.027 91.407 137.704H139.828C133.08 140.027 127.398 144.268 125.712 151.792ZM200.875 160.57C200.765 163.32 200.642 166.071 200.66 168.821C200.703 175.75 199.253 189.345 188.375 198.186C183.939 201.755 178.585 204 172.93 204.661C167.274 205.323 161.547 204.374 156.407 201.925C147.785 197.848 137.73 189.004 130.837 170.084C116.416 130.495 169.295 138.697 169.295 138.697C169.295 138.697 201.733 138.949 200.875 160.57Z" fill="#3F3D56"/>
</g>
</svg>
