<svg width="348" height="534" viewBox="0 0 348 534" fill="none" xmlns="http://www.w3.org/2000/svg">
<g id="Vector">
<path d="M191.533 298.305C177.398 298.305 155.274 336.343 155.047 336.737C134.661 362.755 113.696 428.638 103.01 465.599C101.794 469.794 101.464 474.196 102.038 478.525C102.613 482.855 104.08 487.018 106.347 490.751C108.614 494.484 111.632 497.706 115.209 500.212C118.786 502.718 122.844 504.454 127.127 505.31C149.464 509.77 168.455 516.109 183.571 524.152C219.356 543.192 261.791 525.191 266.089 523.272L252.005 450.497C236.364 398.553 203.824 299.948 192.56 298.376C192.22 298.329 191.876 298.305 191.533 298.305Z" fill="#2F2E41"/>
<path d="M252.491 450.377C252.491 450.377 207.189 299.914 192.63 297.88C178.071 295.847 160.571 336.9 160.571 336.9C151.39 374.851 128.471 427.047 111.832 462.297C109.782 466.637 108.733 471.382 108.764 476.181C108.795 480.981 109.903 485.713 112.009 490.026C114.114 494.339 117.162 498.125 120.927 501.102C124.691 504.079 129.077 506.172 133.76 507.226C149.597 510.776 167.651 516.247 183.336 524.593C221.553 544.926 266.655 523.563 266.655 523.563L252.491 450.377Z" fill="black"/>
<path d="M223.644 460.47L150.644 451.47L165.644 385.47L223.644 387.47V460.47Z" fill="#9E616A"/>
<path d="M218.901 284.443C238.988 284.443 255.272 268.159 255.272 248.072C255.272 227.984 238.988 211.7 218.901 211.7C198.814 211.7 182.529 227.984 182.529 248.072C182.529 268.159 198.814 284.443 218.901 284.443Z" fill="#2F2E41"/>
<path d="M34.8031 400.89C31.4477 399.521 28.711 396.969 27.1117 393.717C25.5124 390.465 25.1615 386.739 26.1255 383.246C27.0896 379.752 29.3016 376.734 32.3424 374.763C35.3833 372.791 39.0416 372.004 42.6242 372.549L89.2884 363.576L106.797 384.378L54.8307 390.469C54.3666 392.57 53.4473 394.545 52.1375 396.253C50.8277 397.961 49.1594 399.361 47.2499 400.355C45.3405 401.349 43.2364 401.911 41.0859 402.004C38.9354 402.096 36.7907 401.716 34.8031 400.89Z" fill="#9E616A"/>
<path d="M179.81 354.397L121.894 389.923L69.6444 391.47L53.9684 368.673L110.923 358.2L189.359 298.33L179.81 354.397Z" fill="#2F2E41"/>
<path d="M169.648 332.231C155.503 346.375 168.638 361.53 168.638 361.53L152.472 397.901L216.122 415.077L238.366 315.683L223.211 299.518C219.987 299.411 221.105 289.308 218.53 289.209C209.137 288.85 203.821 288.552 200.811 288.33C196.889 288.04 192.885 297.88 192.885 297.88C187.575 303.077 169.648 332.231 169.648 332.231Z" fill="#E49D29"/>
<path d="M281.894 485.32C278.508 482.508 275.395 479.384 272.594 475.99C267.435 469.818 262.818 463.214 258.794 456.25C253.347 446.894 248.79 437.048 245.184 426.84C245.174 426.82 245.174 426.8 245.164 426.78C244.034 423.59 242.987 420.307 242.024 416.93C242.015 416.892 242.002 416.855 241.984 416.82C240.359 411.115 239.044 405.327 238.044 399.48C234.004 375.81 241.844 354.25 249.134 340.33C249.756 339.156 250.288 337.935 250.724 336.68C252.712 331.182 252.867 325.188 251.165 319.595C249.463 314.002 245.997 309.109 241.284 305.65L240.934 305.39C238.052 303.26 234.776 301.721 231.296 300.863C227.816 300.005 224.201 299.845 220.659 300.392C217.117 300.939 213.718 302.181 210.659 304.048C207.599 305.915 204.94 308.37 202.834 311.27C202.808 311.297 202.784 311.328 202.764 311.36C190.304 328.72 178.564 354.38 183.634 386.09C184.843 393.557 186.841 400.874 189.594 407.92C190.434 410.09 191.354 412.28 192.354 414.49C196.444 423.49 200.457 431.937 204.394 439.83C207.844 446.76 211.217 453.263 214.514 459.34C225.184 479.04 234.944 494.25 243.224 504.9C252.804 517.2 260.404 523.41 265.154 523.41C265.639 523.415 266.123 523.34 266.584 523.19C266.604 523.18 266.614 523.18 266.634 523.17C270.334 521.92 274.884 518.07 278.674 513.18C282.184 508.63 285.034 503.18 285.934 498.07C286.604 494.26 286.444 488.96 281.894 485.32Z" fill="#2F2E41"/>
<path d="M220.772 280.87C233.746 273.777 238.514 257.51 231.422 244.535C224.329 231.561 208.062 226.792 195.087 233.885C182.113 240.977 177.344 257.245 184.437 270.22C191.529 283.194 207.797 287.962 220.772 280.87Z" fill="#9E616A"/>
<path d="M173.276 253.353H211.937L212.333 247.803L214.315 253.353H220.268L221.054 242.352L224.983 253.353H236.501V252.808C236.493 245.149 233.446 237.807 228.031 232.391C222.615 226.976 215.273 223.93 207.614 223.921H202.164C194.505 223.93 187.162 226.976 181.747 232.391C176.331 237.807 173.285 245.149 173.276 252.808V253.353Z" fill="#2F2E41"/>
<path d="M297.827 504.164C296.638 507.588 294.234 510.456 291.072 512.225C287.909 513.995 284.207 514.543 280.668 513.766C277.128 512.988 273.997 510.939 271.867 508.008C269.737 505.076 268.756 501.464 269.111 497.858L257.675 451.735L277.519 433.147L286.358 484.718C288.481 485.07 290.502 485.883 292.277 487.1C294.052 488.318 295.539 489.909 296.632 491.763C297.726 493.617 298.399 495.689 298.606 497.831C298.812 499.974 298.546 502.136 297.827 504.164Z" fill="#9E616A"/>
<path d="M246.267 321.077L287.978 466.874L265.382 480.268L199.911 323.03L246.267 321.077Z" fill="#2F2E41"/>
<path d="M319.529 269.435C311.555 263.904 306.596 254.975 303.185 245.89C299.775 236.805 297.628 227.258 293.763 218.357C289.084 207.61 282.02 198.068 273.108 190.454C267.401 185.589 260.762 181.48 253.36 180.275C245.958 179.07 237.709 181.221 232.975 187.037C228.241 192.854 228.251 202.478 233.984 207.312C232.273 205.511 228.954 205.958 227.468 207.949C226.783 208.991 226.447 210.223 226.51 211.468C226.572 212.713 227.03 213.906 227.816 214.873C228.388 215.589 229.091 216.191 229.887 216.645C231.675 220.642 234.734 223.934 238.588 226.011C243.273 228.321 249.518 227.839 253.065 224.004C256.612 220.17 256.105 213.01 251.535 210.481C258.644 209.112 265.999 213.24 270.122 219.192C274.244 225.143 275.631 232.579 275.97 239.811C276.309 247.043 275.706 254.307 276.316 261.521C276.926 268.735 278.898 276.118 283.663 281.57C291.469 290.503 305.196 292.17 316.553 288.74C327.91 285.311 337.474 277.73 346.728 270.306C339.03 276.215 327.502 274.965 319.529 269.435Z" fill="#2F2E41"/>
<path d="M5.44224 380.96C0.285316 384.765 -1.02543 391.725 0.746924 397.63C1.66829 400.858 3.4868 403.757 5.99106 405.992C8.49533 408.226 11.5825 409.704 14.8935 410.254C22.3197 411.653 30.2678 408.741 36.044 404.129C42.5551 398.931 46.3302 391.349 50.0794 384.105C55.158 374.291 60.7324 364.714 66.0975 355.055C72.0815 344.282 78.0631 333.507 84.0423 322.731C97.4832 298.492 110.861 274.217 124.175 249.908C137.473 225.571 150.62 201.152 163.614 176.65C174.145 156.685 184.573 136.648 194.329 116.29C195.287 114.289 196.237 112.284 197.178 110.276C197.455 109.532 197.429 108.709 197.106 107.984C196.783 107.26 196.188 106.691 195.45 106.4C194.705 106.131 193.886 106.161 193.163 106.483C192.441 106.806 191.871 107.395 191.574 108.129C182.696 127.089 173.091 145.711 163.39 164.26C151.231 187.512 138.851 210.648 126.251 233.666C113.227 257.6 100.105 281.481 86.8846 305.307C75.4427 325.978 63.979 346.636 52.4934 367.282C49.7044 372.308 46.8757 377.314 44.2356 382.421C40.8244 389.02 37.2777 395.928 31.0909 400.359C25.8368 404.121 18.3885 406.113 12.3028 403.205C7.76977 401.039 5.45744 395.629 6.07975 390.951C6.20572 389.886 6.55331 388.859 7.10013 387.936C7.64696 387.013 8.38095 386.215 9.2548 385.593C12.3687 383.296 8.54345 378.673 5.44224 380.96Z" fill="#2F2E41"/>
<path d="M329.962 253.282L329.608 253.239C315.979 251.566 302.476 249.547 289.473 247.239C280.221 245.596 271.186 243.808 262.622 241.925C255.399 240.346 248.259 238.654 241.401 236.897C233.754 234.95 226.166 232.853 218.849 230.664C215.794 229.765 212.686 228.813 209.611 227.836C203.912 226.027 198.42 224.187 193.286 222.368C188.304 220.626 183.28 218.767 178.355 216.844C178.25 216.813 178.147 216.775 178.046 216.731C168.066 212.855 158.266 208.671 148.929 204.301C147.12 203.461 145.322 202.609 143.534 201.745C89.6764 175.717 44.5842 140.404 9.51141 96.7846L9.31226 96.5372L9.45178 96.252C28.1994 57.799 60.6537 27.7503 100.434 12.0136C140.214 -3.72302 184.442 -4.00914 224.422 11.2115C229.349 13.0931 234.198 15.1984 238.838 17.4691L251.326 23.5754C258.075 26.8738 264.602 30.6079 270.866 34.7539C305.525 57.755 330.643 92.5682 341.543 132.711C352.444 172.854 348.383 215.59 330.118 252.962L329.962 253.282Z" fill="#5D98CA"/>
<path d="M34.497 120.786C81.0416 86.2837 131.793 57.8536 185.525 36.1824C200.599 30.0997 215.877 24.5621 231.359 19.5699C233.191 18.9786 231.923 16.2579 230.102 16.8452C174.721 34.718 121.847 59.586 72.7617 90.8466C59.0467 99.5708 45.6564 108.778 32.5907 118.469C31.0365 119.622 32.9488 121.934 34.497 120.786Z" fill="#3F3D56"/>
<path d="M261.282 29.4234C261.105 29.6779 261.014 29.982 261.022 30.2917C261.03 30.6014 261.136 30.9006 261.325 31.1457C269.798 42.8938 276.983 55.5193 282.755 68.8042C288.529 82.0889 292.931 95.9286 295.892 110.108C298.885 124.288 300.457 138.732 300.585 153.224C300.72 167.713 299.395 182.18 296.632 196.404C294.268 208.567 290.792 220.488 286.25 232.017C285.489 233.952 284.696 235.875 283.871 237.784C283.158 239.433 282.423 241.069 281.666 242.694C280.852 244.453 283.663 245.51 284.475 243.77C285.468 241.616 286.432 239.449 287.338 237.257C292.095 225.907 295.826 214.155 298.486 202.14C301.657 187.809 303.357 173.192 303.558 158.516C303.771 143.819 302.532 129.136 299.859 114.683C297.191 100.245 293.07 86.1145 287.559 72.5061C282.034 58.8445 275.053 45.8177 266.739 33.6508C266.361 33.0917 265.973 32.5316 265.585 31.9815L261.282 29.4234Z" fill="#3F3D56"/>
<path d="M112.403 183.629L235.774 34.9693C237.011 33.4797 234.57 31.7328 233.342 33.2118L109.971 181.872C108.735 183.362 111.175 185.108 112.403 183.629Z" fill="#3F3D56"/>
<path d="M217.746 228.402L252.755 46.6645C253.12 44.7697 250.131 44.4917 249.769 46.3744L214.76 228.112C214.395 230.007 217.383 230.285 217.746 228.402Z" fill="#3F3D56"/>
<path d="M270.59 35.1704C267.673 40.3781 263.054 44.4239 257.507 46.6285C251.961 48.8332 245.825 49.0624 240.129 47.2778C234.433 45.4932 229.525 41.8034 226.228 36.8278C222.931 31.8522 221.447 25.8939 222.024 19.9531C222.295 17.0903 223.046 14.2934 224.244 11.679C229.078 13.5251 233.869 15.6048 238.618 17.9181L251.106 24.0242C257.836 27.3117 264.345 31.035 270.59 35.1704Z" fill="#3F3D56"/>
<path d="M28.882 157.504L47.1054 189.205C47.3132 189.534 47.6408 189.769 48.0189 189.862C48.397 189.954 48.7963 189.896 49.1323 189.699C49.4683 189.503 49.7149 189.184 49.82 188.809C49.9252 188.434 49.8807 188.033 49.6958 187.691L31.4725 155.989C31.2646 155.66 30.9371 155.425 30.559 155.333C30.1809 155.24 29.7817 155.299 29.4457 155.495C29.1096 155.691 28.863 156.011 28.7579 156.385C28.6527 156.76 28.6972 157.161 28.882 157.504Z" fill="#F2F2F2"/>
<path d="M105.542 488.196L120.384 519.896C121.202 521.643 123.789 520.122 122.974 518.382L108.133 486.681C107.315 484.934 104.728 486.456 105.542 488.196Z" fill="#F2F2F2"/>
<path d="M229.882 426.504L248.105 458.205C248.313 458.534 248.641 458.769 249.019 458.862C249.397 458.954 249.796 458.896 250.132 458.699C250.468 458.503 250.715 458.184 250.82 457.809C250.925 457.434 250.881 457.033 250.696 456.69L232.472 424.989C232.265 424.66 231.937 424.425 231.559 424.333C231.181 424.24 230.782 424.299 230.446 424.495C230.11 424.691 229.863 425.011 229.758 425.385C229.653 425.76 229.697 426.161 229.882 426.504Z" fill="#F2F2F2"/>
<path d="M270.542 381.196L285.384 412.896C286.202 414.643 288.789 413.122 287.974 411.382L273.133 379.681C272.315 377.934 269.728 379.456 270.542 381.196Z" fill="#F2F2F2"/>
</g>
</svg>
